<svg width="221" height="207" viewBox="0 0 221 207" fill="none" xmlns="http://www.w3.org/2000/svg">
<path d="M55.9173 85.1838C49.4749 72.9674 35.2338 50.9373 16.265 51.1698C-9.95992 51.4798 20.5664 110.731 20.5664 110.731C20.5664 110.731 -4.18598 159.257 17.3985 164.382C38.983 169.507 57.1961 139.097 57.1961 139.097" fill="#FF6700"/>
<path d="M160.678 187.494C171.188 177.159 174.456 163.439 167.977 156.851C161.498 150.263 147.726 153.3 137.216 163.636C126.706 173.971 123.438 187.691 129.917 194.279C136.395 200.867 150.168 197.83 160.678 187.494Z" fill="black"/>
<path d="M160.678 187.494C171.188 177.159 174.456 163.439 167.977 156.851C161.498 150.263 147.726 153.3 137.216 163.636C126.706 173.971 123.438 187.691 129.917 194.279C136.395 200.867 150.168 197.83 160.678 187.494Z" fill="black" fill-opacity="0.2"/>
<path d="M171.534 55.6203C171.534 55.6203 153.95 21.8485 115.257 6.73549C96.6466 -0.530384 89.0901 10.8044 99.8145 25.0649C113.484 43.2295 61.6736 7.46207 94.9319 66.5772L171.543 55.6203H171.534Z" fill="#FF6700"/>
<path d="M142.131 42.1564L158.746 37.2253L130.351 14.0811L104.135 4.48047L95.1934 10.6904C95.1934 10.6904 133.121 23.3233 142.131 42.1564Z" fill="#FECB8B"/>
<path d="M166.891 53.2397C166.068 54.4216 166.078 56.6111 166.814 57.6864L166.804 57.6477L166.746 57.5023C164.334 51.1568 160.478 45.4313 156.167 40.1999C146.431 28.807 134.108 19.6036 120.516 13.3937C115.526 11.398 109.462 8.53037 104.269 9.00507C98.2821 9.31508 99.309 14.2074 101.508 18.1988C104.027 22.723 110.266 27.7898 106.323 33.4668C102.894 38.117 96.1024 35.7532 91.6363 36.0438C90.2994 36.0632 89.3112 36.4313 89.3887 36.4991C89.3984 36.5282 89.5534 36.3829 89.5631 36.3732C89.1078 40.5293 91.4813 45.5282 93.0895 49.5583C93.5932 50.7402 94.6201 53.1331 95.1627 54.3054C96.5964 57.4927 98.0884 60.709 99.4737 64.0222L94.1939 61.4162C118.578 57.822 142.207 55.5454 166.901 53.2397H166.891ZM176.172 58.0061C149.812 63.0341 122.356 68.033 95.6277 71.7434C93.4479 72.0535 91.3844 70.9394 90.3769 69.1277C84.8354 61.174 80.2628 52.4744 78.2186 42.7962C75.506 28.4001 84.1476 22.878 97.5362 25.2419C98.3887 25.3484 99.2122 25.4356 99.6869 25.4453C99.9 25.4647 100.036 25.4163 99.6772 25.5131C98.069 25.9878 96.7708 27.722 96.7708 29.4173C96.7418 29.7467 96.7999 30.1245 96.9065 30.4152C95.7052 27.9642 93.5545 25.5519 92.4016 22.8102C90.3478 18.4216 89.0787 13.4712 90.8613 8.40442C94.7655 -2.05843 107.922 -1.06058 116.205 2.58204C118.791 3.66708 121.446 5.004 123.984 6.14716C126.27 7.46471 129.177 8.91788 131.405 10.2936L136.181 13.3162C148.736 21.6574 159.267 32.5756 168.877 44.0847C170.699 46.187 172.559 48.5895 174.303 50.7693L175.213 51.9318L175.669 52.5325L175.785 52.6875C176.744 54.1213 176.87 56.4367 176.182 57.9964L176.172 58.0061Z" fill="black"/>
<path d="M166.891 53.2397C166.068 54.4216 166.078 56.6111 166.814 57.6864L166.804 57.6477L166.746 57.5023C164.334 51.1568 160.478 45.4313 156.167 40.1999C146.431 28.807 134.108 19.6036 120.516 13.3937C115.526 11.398 109.462 8.53037 104.269 9.00507C98.2821 9.31508 99.309 14.2074 101.508 18.1988C104.027 22.723 110.266 27.7898 106.323 33.4668C102.894 38.117 96.1024 35.7532 91.6363 36.0438C90.2994 36.0632 89.3112 36.4313 89.3887 36.4991C89.3984 36.5282 89.5534 36.3829 89.5631 36.3732C89.1078 40.5293 91.4813 45.5282 93.0895 49.5583C93.5932 50.7402 94.6201 53.1331 95.1627 54.3054C96.5964 57.4927 98.0884 60.709 99.4737 64.0222L94.1939 61.4162C118.578 57.822 142.207 55.5454 166.901 53.2397H166.891ZM176.172 58.0061C149.812 63.0341 122.356 68.033 95.6277 71.7434C93.4479 72.0535 91.3844 70.9394 90.3769 69.1277C84.8354 61.174 80.2628 52.4744 78.2186 42.7962C75.506 28.4001 84.1476 22.878 97.5362 25.2419C98.3887 25.3484 99.2122 25.4356 99.6869 25.4453C99.9 25.4647 100.036 25.4163 99.6772 25.5131C98.069 25.9878 96.7708 27.722 96.7708 29.4173C96.7418 29.7467 96.7999 30.1245 96.9065 30.4152C95.7052 27.9642 93.5545 25.5519 92.4016 22.8102C90.3478 18.4216 89.0787 13.4712 90.8613 8.40442C94.7655 -2.05843 107.922 -1.06058 116.205 2.58204C118.791 3.66708 121.446 5.004 123.984 6.14716C126.27 7.46471 129.177 8.91788 131.405 10.2936L136.181 13.3162C148.736 21.6574 159.267 32.5756 168.877 44.0847C170.699 46.187 172.559 48.5895 174.303 50.7693L175.213 51.9318L175.669 52.5325L175.785 52.6875C176.744 54.1213 176.87 56.4367 176.182 57.9964L176.172 58.0061Z" fill="black" fill-opacity="0.2"/>
<path d="M57.1889 139.077L57.4311 134.591C73.3289 155.139 104.533 174.408 135.815 174.408C180.486 174.408 216.699 144.134 216.699 106.797C216.699 69.46 180.486 39.1855 135.815 39.1855C105.367 39.1855 71.7885 62.4363 55.9102 85.1834" fill="#FECB8B"/>
<path d="M132.805 159.814C140.942 164.203 158.322 165.995 171.304 163.205C183.133 160.657 159.146 177.272 133.948 176.536L132.814 159.814H132.805Z" fill="#FF6700"/>
<path d="M45.3104 94.2836C33.2199 67.9327 15.2878 58.6324 10.9089 70.0835C8.21566 29.0167 43.2953 67.1965 50.2027 83.0361L45.3104 94.2836Z" fill="#FECB8B"/>
<path d="M20.2188 159.607C38.0444 159.025 45.9302 131.347 45.8624 122.309L55.87 138.206C44.8355 153.058 33.0551 161.166 20.2188 159.607Z" fill="black"/>
<path d="M20.2188 159.607C38.0444 159.025 45.9302 131.347 45.8624 122.309L55.87 138.206C44.8355 153.058 33.0551 161.166 20.2188 159.607Z" fill="black" fill-opacity="0.2"/>
<path d="M52.5028 119.987C55.9807 123.436 45.3629 104.884 51.2821 92.7544C81.6438 30.607 148.393 39.8105 142.125 42.1549C90.2466 61.579 85.3542 117.391 111.163 152.78L92.9011 160.811C83.7557 161.955 49.4802 132.804 52.4931 119.997L52.5028 119.987Z" fill="#FF6700"/>
<path d="M61.6637 141.769C52.4603 156 37.2601 172.199 18.6498 169.912C11.9846 169.079 6.40437 165.155 4.40867 158.141C0.291347 143.406 9.57229 121.657 15.9178 108.356C15.9178 108.356 15.9275 113.132 15.9178 113.112C9.0879 98.697 -1.5784 74.5065 1.40545 58.5894C3.94366 46.0921 16.0147 44.6873 26.1385 48.2234C37.047 52.1373 44.8844 60.5947 51.3365 69.5754C54.4269 73.9639 57.1492 78.5366 59.5905 83.2449C61.9447 88.1857 54.9598 91.8186 52.2472 87.12C45.5238 75.1071 36.5432 61.6507 23.2418 56.8552C19.3473 55.5474 14.1256 55.3924 12.6046 56.8359C7.84785 61.2632 11.9167 74.923 13.6702 80.8229C16.6541 90.1911 20.7424 99.6076 25.1988 108.346C25.9932 109.896 25.9447 111.659 25.2084 113.103C21.3914 120.882 17.991 129.301 15.7434 137.661C14.329 143.474 11.6358 154.489 16.596 158.481C19.1729 159.914 22.3893 159.934 25.315 159.469C35.0803 157.599 43.0825 149.335 49.118 141.575C50.358 139.948 51.6756 138.078 52.7413 136.354C56.5098 130.58 65.0448 135.743 61.6541 141.769H61.6637Z" fill="black"/>
<path d="M61.6637 141.769C52.4603 156 37.2601 172.199 18.6498 169.912C11.9846 169.079 6.40437 165.155 4.40867 158.141C0.291347 143.406 9.57229 121.657 15.9178 108.356C15.9178 108.356 15.9275 113.132 15.9178 113.112C9.0879 98.697 -1.5784 74.5065 1.40545 58.5894C3.94366 46.0921 16.0147 44.6873 26.1385 48.2234C37.047 52.1373 44.8844 60.5947 51.3365 69.5754C54.4269 73.9639 57.1492 78.5366 59.5905 83.2449C61.9447 88.1857 54.9598 91.8186 52.2472 87.12C45.5238 75.1071 36.5432 61.6507 23.2418 56.8552C19.3473 55.5474 14.1256 55.3924 12.6046 56.8359C7.84785 61.2632 11.9167 74.923 13.6702 80.8229C16.6541 90.1911 20.7424 99.6076 25.1988 108.346C25.9932 109.896 25.9447 111.659 25.2084 113.103C21.3914 120.882 17.991 129.301 15.7434 137.661C14.329 143.474 11.6358 154.489 16.596 158.481C19.1729 159.914 22.3893 159.934 25.315 159.469C35.0803 157.599 43.0825 149.335 49.118 141.575C50.358 139.948 51.6756 138.078 52.7413 136.354C56.5098 130.58 65.0448 135.743 61.6541 141.769H61.6637Z" fill="black" fill-opacity="0.2"/>
<path d="M47.1314 90.5889C62.5931 62.7752 96.6265 39.0109 128.296 35.2811C161.797 32.2779 198.349 48.4275 213.84 79.3123C233.012 118.471 208.25 159.75 169.711 173.914C156.488 178.903 142.198 180.792 128.151 179.62C102.1 176.84 77.6093 163.722 60.0162 144.492C58.563 143.01 56.6739 140.51 55.3466 138.902C51.5781 134.058 48.4586 128.759 46.0948 122.985C45.2907 121.086 46.182 118.897 48.0808 118.093C49.8924 117.327 51.9656 118.093 52.8472 119.817C56.7611 127.509 62.4381 134.475 69.0065 140.481C88.0721 157.929 114.346 170.078 140.503 168.702C174.41 167.597 211.95 144.521 212.958 107.669C213.849 70.3123 176.803 45.2402 142.343 43.6999C124.808 42.1304 107.545 48.3791 92.4026 57.7181C77.6286 67.0281 63.6685 79.6223 55.4145 94.9872C52.3531 100.383 44.3897 96.1788 47.1507 90.5986L47.1314 90.5889Z" fill="black"/>
<path d="M47.1314 90.5889C62.5931 62.7752 96.6265 39.0109 128.296 35.2811C161.797 32.2779 198.349 48.4275 213.84 79.3123C233.012 118.471 208.25 159.75 169.711 173.914C156.488 178.903 142.198 180.792 128.151 179.62C102.1 176.84 77.6093 163.722 60.0162 144.492C58.563 143.01 56.6739 140.51 55.3466 138.902C51.5781 134.058 48.4586 128.759 46.0948 122.985C45.2907 121.086 46.182 118.897 48.0808 118.093C49.8924 117.327 51.9656 118.093 52.8472 119.817C56.7611 127.509 62.4381 134.475 69.0065 140.481C88.0721 157.929 114.346 170.078 140.503 168.702C174.41 167.597 211.95 144.521 212.958 107.669C213.849 70.3123 176.803 45.2402 142.343 43.6999C124.808 42.1304 107.545 48.3791 92.4026 57.7181C77.6286 67.0281 63.6685 79.6223 55.4145 94.9872C52.3531 100.383 44.3897 96.1788 47.1507 90.5986L47.1314 90.5889Z" fill="black" fill-opacity="0.2"/>
<path d="M119.107 190.42C132.144 181.715 138.277 168.014 132.805 159.817C127.332 151.621 112.327 152.033 99.2887 160.738C86.2509 169.443 80.118 183.145 85.5906 191.341C91.0632 199.537 106.069 199.125 119.107 190.42Z" fill="#FECB8B"/>
<path d="M133.637 164.433C132.659 162.399 131.021 158.098 129.035 156.867C131.118 165.228 123.474 177.473 110.958 183.528C100.572 188.546 90.7296 184.313 87.4648 175.003C87.6489 175.739 84.016 187.578 84.3454 188.265C88.4821 196.82 102.868 198.418 116.47 191.84C130.082 185.262 137.764 172.988 133.627 164.433H133.637Z" fill="#FF6700"/>
<path d="M112.207 156.262C104.311 161.659 96.3767 167.917 92.0075 176.181C88.6555 182.71 87.677 190.189 96.7448 191.361C103.168 192.156 109.959 189.889 115.607 186.711C121.575 183.388 126.273 178.109 128.773 171.705C130.294 167.559 130.943 162.744 129.073 158.646C128.531 157.619 128.967 156.33 130.023 155.846C133.297 154.315 135.719 162.472 135.961 164.72C137.192 173.662 133.568 182.584 127.697 189.259C117.128 201.156 93.1603 209.972 81.2152 195.363C72.0215 182.1 83.4337 165.388 94.9235 158.278C99.6899 155.177 104.844 152.969 110.133 151.593C111.519 151.235 112.933 152.068 113.292 153.453C113.573 154.557 113.108 155.672 112.207 156.262Z" fill="black"/>
<path d="M112.207 156.262C104.311 161.659 96.3767 167.917 92.0075 176.181C88.6555 182.71 87.677 190.189 96.7448 191.361C103.168 192.156 109.959 189.889 115.607 186.711C121.575 183.388 126.273 178.109 128.773 171.705C130.294 167.559 130.943 162.744 129.073 158.646C128.531 157.619 128.967 156.33 130.023 155.846C133.297 154.315 135.719 162.472 135.961 164.72C137.192 173.662 133.568 182.584 127.697 189.259C117.128 201.156 93.1603 209.972 81.2152 195.363C72.0215 182.1 83.4337 165.388 94.9235 158.278C99.6899 155.177 104.844 152.969 110.133 151.593C111.519 151.235 112.933 152.068 113.292 153.453C113.573 154.557 113.108 155.672 112.207 156.262Z" fill="black" fill-opacity="0.2"/>
<path d="M153.85 105.986C158.906 104.556 161.066 96.5472 158.676 88.0988C156.285 79.6505 150.249 73.9615 145.193 75.3921C140.137 76.8227 137.977 84.8312 140.368 93.2795C142.758 101.728 148.795 107.417 153.85 105.986Z" fill="black"/>
<path d="M153.85 105.986C158.906 104.556 161.066 96.5472 158.676 88.0988C156.285 79.6505 150.249 73.9615 145.193 75.3921C140.137 76.8227 137.977 84.8312 140.368 93.2795C142.758 101.728 148.795 107.417 153.85 105.986Z" fill="black" fill-opacity="0.2"/>
<path d="M142.755 97.704C144.732 97.1445 145.659 94.3038 144.826 91.359C143.993 88.4141 141.715 86.4804 139.738 87.0398C137.761 87.5992 136.834 90.44 137.667 93.3848C138.5 96.3296 140.778 98.2634 142.755 97.704Z" fill="white"/>
<path d="M180.706 99.9231C185.458 98.5785 187.489 91.0529 185.242 83.1142C182.996 75.1755 177.323 69.83 172.571 71.1747C167.819 72.5193 165.788 80.0449 168.034 87.9836C170.281 95.9223 175.954 101.268 180.706 99.9231Z" fill="black"/>
<path d="M180.706 99.9231C185.458 98.5785 187.489 91.0529 185.242 83.1142C182.996 75.1755 177.323 69.83 172.571 71.1747C167.819 72.5193 165.788 80.0449 168.034 87.9836C170.281 95.9223 175.954 101.268 180.706 99.9231Z" fill="black" fill-opacity="0.2"/>
<path d="M170.276 92.1366C172.134 91.6107 173.006 88.939 172.222 86.1692C171.438 83.3995 169.296 81.5804 167.437 82.1063C165.579 82.6323 164.708 85.3039 165.491 88.0737C166.275 90.8435 168.417 92.6625 170.276 92.1366Z" fill="white"/>
<path d="M146.41 123.319C146.41 123.319 146.526 140.437 160.07 139.11C180.473 137.105 200.362 98.6729 163.005 119.095C153.104 124.51 146.42 123.319 146.42 123.319H146.41Z" fill="black"/>
<path d="M146.41 123.319C146.41 123.319 146.526 140.437 160.07 139.11C180.473 137.105 200.362 98.6729 163.005 119.095C153.104 124.51 146.42 123.319 146.42 123.319H146.41Z" fill="black" fill-opacity="0.2"/>
</svg>
